<?xml version="1.0" encoding="utf-8"?>
<!-- Generator: Adobe Illustrator 24.0.1, SVG Export Plug-In . SVG Version: 6.00 Build 0)  -->
<svg version="1.1" id="레이어_1" xmlns="http://www.w3.org/2000/svg" xmlns:xlink="http://www.w3.org/1999/xlink" x="0px"
	 y="0px" viewBox="0 0 642 582.6" style="enable-background:new 0 0 642 582.6;" xml:space="preserve">
<style type="text/css">
	.st0{fill:url(#SVGID_1_);}
</style>
<linearGradient id="SVGID_1_" gradientUnits="userSpaceOnUse" x1="81.718" y1="116.4823" x2="560.464" y2="643.9983" gradientTransform="matrix(1 0 0 -1 0 671.6453)">
	<stop  offset="1" style="stop-color:#D44141"/>
	<stop  offset="1" style="stop-color:#000000"/>
</linearGradient>
<path class="st0" d="M486.5,67.4c47,25.4,77.5,83.2,91.5,146.7c14,63.5,10.8,132.8-19.1,186.7c-29.9,54.6-87,94.6-149.3,115.6
	c-62.3,21-130.2,22.2-176.6-7C186.7,480.2,162,420.5,127,364.6C92.7,308.7,48.3,256,57.2,214.7c8.9-41.9,71.1-73,122.6-97.2
	c52.1-24.8,93.4-41.9,145.5-54.6C377.3,50.2,439.5,42,486.5,67.4z"/>
</svg>
